# xmcd CD database file
#
# Track frame offsets:
#	150
#	31904
#	59879
#	75164
#	88796
#	107853
#	148406
#
# Disc length: 2465 seconds
#
# Revision: 0
# Processed by: cddbd v1.4PL0 Copyright (c) Steve Scherf et al.
# Submitted via: CDex 1.50beta10
#
DISCID=5e099f07
DTITLE=Redemption - Snatch It Back And Hold It
DYEAR=1900
DGENRE=Blues
TTITLE0=Snatch It Back And Hold It
TTITLE1=Love That Burns
TTITLE2=Stop Messin' Me Around
TTITLE3=Honest I Do
TTITLE4=The Thrill Has Gone
TTITLE5=Damn Right I've Got The Blues
TTITLE6=Right Time Wrong Place
EXTD=
EXTT0=
EXTT1=
EXTT2=
EXTT3=
EXTT4=
EXTT5=
EXTT6=
PLAYORDER=
